# Wavefront OBJ file automatically generated by Tiled2Unity

# Vertices (Count = 88)
v -1.91999995708466 -2.87999987602234 0
v -2.87999987602234 -2.87999987602234 0
v -2.87999987602234 -1.91999995708466 0
v -1.91999995708466 -1.91999995708466 0
v -3.83999991416931 -2.87999987602234 0
v -3.83999991416931 -1.91999995708466 0
v -4.79999971389771 -2.87999987602234 0
v -4.79999971389771 -1.91999995708466 0
v -5.75999975204468 -2.87999987602234 0
v -5.75999975204468 -1.91999995708466 0
v -6.71999979019165 -2.87999987602234 0
v -6.71999979019165 -1.91999995708466 0
v -1.91999995708466 -3.83999991416931 0
v -2.87999987602234 -3.83999991416931 0
v -3.83999991416931 -3.83999991416931 0
v -4.79999971389771 -3.83999991416931 0
v -5.75999975204468 -3.83999991416931 0
v -6.71999979019165 -3.83999991416931 0
v -1.91999995708466 -4.79999971389771 0
v -2.87999987602234 -4.79999971389771 0
v -3.83999991416931 -4.79999971389771 0
v -4.79999971389771 -4.79999971389771 0
v -5.75999975204468 -4.79999971389771 0
v -6.71999979019165 -4.79999971389771 0
v -1.91999995708466 -5.75999975204468 0
v -2.87999987602234 -5.75999975204468 0
v -3.83999991416931 -5.75999975204468 0
v -4.79999971389771 -5.75999975204468 0
v -5.75999975204468 -5.75999975204468 0
v -6.71999979019165 -5.75999975204468 0
v -1.91999995708466 -6.71999979019165 0
v -2.87999987602234 -6.71999979019165 0
v -3.83999991416931 -6.71999979019165 0
v -4.79999971389771 -6.71999979019165 0
v -5.75999975204468 -6.71999979019165 0
v -6.71999979019165 -6.71999979019165 0
v -1.91999995708466 -7.67999982833862 0
v -2.87999987602234 -7.67999982833862 0
v -3.83999991416931 -7.67999982833862 0
v -4.79999971389771 -7.67999982833862 0
v -5.75999975204468 -7.67999982833862 0
v -6.71999979019165 -7.67999982833862 0
v -1.91999995708466 -8.63999938964844 0
v -2.87999987602234 -8.63999938964844 0
v -3.83999991416931 -8.63999938964844 0
v -4.79999971389771 -8.63999938964844 0
v -5.75999975204468 -8.63999938964844 0
v -6.71999979019165 -8.63999938964844 0
v -1.91999995708466 -9.59999942779541 0
v -2.87999987602234 -9.59999942779541 0
v -3.83999991416931 -9.59999942779541 0
v -4.79999971389771 -9.59999942779541 0
v -5.75999975204468 -9.59999942779541 0
v -6.71999979019165 -9.59999942779541 0
v -1.91999995708466 -10.5599994659424 0
v -2.87999987602234 -10.5599994659424 0
v -3.83999991416931 -10.5599994659424 0
v -4.79999971389771 -10.5599994659424 0
v -5.75999975204468 -10.5599994659424 0
v -6.71999979019165 -10.5599994659424 0
v -0.959999978542328 -1.91999995708466 0
v -1.91999995708466 -0.959999978542328 0
v -0.959999978542328 -0.959999978542328 0
v -2.87999987602234 -0.959999978542328 0
v -3.83999991416931 -0.959999978542328 0
v -4.79999971389771 -0.959999978542328 0
v -5.75999975204468 -0.959999978542328 0
v -6.71999979019165 -0.959999978542328 0
v -7.67999982833862 -1.91999995708466 0
v -7.67999982833862 -0.959999978542328 0
v -0.959999978542328 -2.87999987602234 0
v -7.67999982833862 -2.87999987602234 0
v -0.959999978542328 -3.83999991416931 0
v -7.67999982833862 -3.83999991416931 0
v -0.959999978542328 -4.79999971389771 0
v -7.67999982833862 -4.79999971389771 0
v -0.959999978542328 -5.75999975204468 0
v -7.67999982833862 -5.75999975204468 0
v -0.959999978542328 -6.71999979019165 0
v -7.67999982833862 -6.71999979019165 0
v -0.959999978542328 -7.67999982833862 0
v -7.67999982833862 -7.67999982833862 0
v -0.959999978542328 -8.63999938964844 0
v -7.67999982833862 -8.63999938964844 0
v -0.959999978542328 -9.59999942779541 0
v -7.67999982833862 -9.59999942779541 0
v -0.959999978542328 -10.5599994659424 0
v -7.67999982833862 -10.5599994659424 0

# Texture Coorindates (Count = 99)
vt 0.8751221 0.06262207
vt 0.9373779 0.06262207
vt 0.9373779 0.1248779
vt 0.8751221 0.1248779
vt 0.8751221 0.1251221
vt 0.9373779 0.1251221
vt 0.9373779 0.1873779
vt 0.8751221 0.1873779
vt 0.9376221 0.1251221
vt 0.9998779 0.1251221
vt 0.9998779 0.1873779
vt 0.9376221 0.1873779
vt 0.4688721 0.3751221
vt 0.4373779 0.3751221
vt 0.4373779 0.3436279
vt 0.4688721 0.3436279
vt 0.4688721 0.4063721
vt 0.4373779 0.4063721
vt 0.4373779 0.3748779
vt 0.4688721 0.3748779
vt 0.4688721 0.4376221
vt 0.4373779 0.4376221
vt 0.4373779 0.4061279
vt 0.4688721 0.4061279
vt 0.0001220703 0.9286935
vt 0.06237793 0.9286935
vt 0.06237793 0.9998779
vt 0.0001220703 0.9998779
vt 0.06262207 0.9286935
vt 0.1248779 0.9286935
vt 0.1248779 0.9998779
vt 0.06262207 0.9998779
vt 0.1251221 0.9286935
vt 0.1873779 0.9286935
vt 0.1873779 0.9998779
vt 0.1251221 0.9998779
vt 0.0001220703 0.7858363
vt 0.06237793 0.7858363
vt 0.06237793 0.8570208
vt 0.0001220703 0.8570208
vt 0.1876221 0.3751221
vt 0.2498779 0.3751221
vt 0.2498779 0.4373779
vt 0.1876221 0.4373779
vt 0.5626221 0.1251221
vt 0.6248779 0.1251221
vt 0.6248779 0.1873779
vt 0.5626221 0.1873779
vt 0.6251221 0.1251221
vt 0.6873779 0.1251221
vt 0.6873779 0.1873779
vt 0.6251221 0.1873779
vt 0.6876221 0.1251221
vt 0.7498779 0.1251221
vt 0.7498779 0.1873779
vt 0.6876221 0.1873779
vt 0.1251221 0.8572649
vt 0.1873779 0.8572649
vt 0.1873779 0.9284493
vt 0.1251221 0.9284493
vt 0.5626221 0.06262207
vt 0.6248779 0.06262207
vt 0.6248779 0.1248779
vt 0.5626221 0.1248779
vt 0.6251221 0.06262207
vt 0.6873779 0.06262207
vt 0.6873779 0.1248779
vt 0.6251221 0.1248779
vt 0.6876221 0.06262207
vt 0.7498779 0.06262207
vt 0.7498779 0.1248779
vt 0.6876221 0.1248779
vt 0.5626221 0.0001220703
vt 0.6248779 0.0001220703
vt 0.6248779 0.06237793
vt 0.5626221 0.06237793
vt 0.6251221 0.0001220703
vt 0.6873779 0.0001220703
vt 0.6873779 0.06237793
vt 0.6251221 0.06237793
vt 0.6876221 0.0001220703
vt 0.7498779 0.0001220703
vt 0.7498779 0.06237793
vt 0.6876221 0.06237793
vt 0.0001220703 0.7144078
vt 0.06237793 0.7144078
vt 0.06237793 0.7855922
vt 0.0001220703 0.7855922
vt 0.1251221 0.7144078
vt 0.1873779 0.7144078
vt 0.1873779 0.7855922
vt 0.1251221 0.7855922
vt 0.5001221 0.0001220703
vt 0.6665446 0.0001220703
vt 0.6665446 0.1665446
vt 0.5001221 0.1665446
vt 0.0001220703 0.9611926
vt 0.01659684 0.9611926
vt 0.01659684 0.9998779

# Normal
vn 0 0 -1

# Groups (Count = 6)
g mesh_[00]_[03]
f  1/1/1  2/2/1  3/3/1  4/4/1 
f  2/1/1  5/2/1  6/3/1  3/4/1 
f  5/1/1  7/2/1  8/3/1  6/4/1 
f  7/1/1  9/2/1  10/3/1  8/4/1 
f  9/1/1  11/2/1  12/3/1  10/4/1 
f  13/1/1  14/2/1  2/3/1  1/4/1 
f  14/1/1  15/2/1  5/3/1  2/4/1 
f  15/5/1  16/6/1  7/7/1  5/8/1 
f  16/1/1  17/2/1  9/3/1  7/4/1 
f  17/1/1  18/2/1  11/3/1  9/4/1 
f  19/5/1  20/6/1  14/7/1  13/8/1 
f  20/1/1  21/2/1  15/3/1  14/4/1 
f  21/1/1  22/2/1  16/3/1  15/4/1 
f  22/5/1  23/6/1  17/7/1  16/8/1 
f  23/1/1  24/2/1  18/3/1  17/4/1 
f  25/1/1  26/2/1  20/3/1  19/4/1 
f  26/1/1  27/2/1  21/3/1  20/4/1 
f  27/1/1  28/2/1  22/3/1  21/4/1 
f  28/1/1  29/2/1  23/3/1  22/4/1 
f  29/1/1  30/2/1  24/3/1  23/4/1 
f  31/1/1  32/2/1  26/3/1  25/4/1 
f  32/9/1  33/10/1  27/11/1  26/12/1 
f  33/1/1  34/2/1  28/3/1  27/4/1 
f  34/9/1  35/10/1  29/11/1  28/12/1 
f  35/1/1  36/2/1  30/3/1  29/4/1 
f  37/1/1  38/2/1  32/3/1  31/4/1 
f  38/1/1  39/2/1  33/3/1  32/4/1 
f  39/1/1  40/2/1  34/3/1  33/4/1 
f  40/1/1  41/2/1  35/3/1  34/4/1 
f  41/1/1  42/2/1  36/3/1  35/4/1 
f  43/1/1  44/2/1  38/3/1  37/4/1 
f  44/1/1  45/2/1  39/3/1  38/4/1 
f  45/9/1  46/10/1  40/11/1  39/12/1 
f  46/1/1  47/2/1  41/3/1  40/4/1 
f  47/1/1  48/2/1  42/3/1  41/4/1 
f  49/1/1  50/2/1  44/3/1  43/4/1 
f  50/9/1  51/10/1  45/11/1  44/12/1 
f  51/1/1  52/2/1  46/3/1  45/4/1 
f  52/1/1  53/2/1  47/3/1  46/4/1 
f  53/5/1  54/6/1  48/7/1  47/8/1 
f  55/1/1  56/2/1  50/3/1  49/4/1 
f  56/1/1  57/2/1  51/3/1  50/4/1 
f  57/1/1  58/2/1  52/3/1  51/4/1 
f  58/1/1  59/2/1  53/3/1  52/4/1 
f  59/1/1  60/2/1  54/3/1  53/4/1 
g mesh_[01]_[04]
f  7/13/1  9/14/1  10/15/1  8/16/1 
f  16/17/1  17/18/1  9/19/1  7/20/1 
f  22/21/1  23/22/1  17/23/1  16/24/1 
g mesh_[02]_[02]
f  61/25/1  4/26/1  62/27/1  63/28/1 
f  4/29/1  3/30/1  64/31/1  62/32/1 
f  3/29/1  6/30/1  65/31/1  64/32/1 
f  6/29/1  8/30/1  66/31/1  65/32/1 
f  8/29/1  10/30/1  67/31/1  66/32/1 
f  10/29/1  12/30/1  68/31/1  67/32/1 
f  12/33/1  69/34/1  70/35/1  68/36/1 
f  71/37/1  1/38/1  4/39/1  61/40/1 
f  11/57/1  72/58/1  69/59/1  12/60/1 
f  73/37/1  13/38/1  1/39/1  71/40/1 
f  18/57/1  74/58/1  72/59/1  11/60/1 
f  75/37/1  19/38/1  13/39/1  73/40/1 
f  24/57/1  76/58/1  74/59/1  18/60/1 
f  77/37/1  25/38/1  19/39/1  75/40/1 
f  30/57/1  78/58/1  76/59/1  24/60/1 
f  79/37/1  31/38/1  25/39/1  77/40/1 
f  36/57/1  80/58/1  78/59/1  30/60/1 
f  81/37/1  37/38/1  31/39/1  79/40/1 
f  42/57/1  82/58/1  80/59/1  36/60/1 
f  83/37/1  43/38/1  37/39/1  81/40/1 
f  48/57/1  84/58/1  82/59/1  42/60/1 
f  85/37/1  49/38/1  43/39/1  83/40/1 
f  54/57/1  86/58/1  84/59/1  48/60/1 
f  87/85/1  55/86/1  49/87/1  85/88/1 
f  55/29/1  56/30/1  50/31/1  49/32/1 
f  56/29/1  57/30/1  51/31/1  50/32/1 
f  57/29/1  58/30/1  52/31/1  51/32/1 
f  58/29/1  59/30/1  53/31/1  52/32/1 
f  59/29/1  60/30/1  54/31/1  53/32/1 
f  60/89/1  88/90/1  86/91/1  54/92/1 
g mesh_[02]_[03]
f  1/41/1  2/42/1  3/43/1  4/44/1 
f  2/41/1  5/42/1  6/43/1  3/44/1 
f  5/45/1  7/46/1  8/47/1  6/48/1 
f  7/49/1  9/50/1  10/51/1  8/52/1 
f  9/53/1  11/54/1  12/55/1  10/56/1 
f  15/61/1  16/62/1  7/63/1  5/64/1 
f  16/65/1  17/66/1  9/67/1  7/68/1 
f  17/69/1  18/70/1  11/71/1  9/72/1 
f  21/73/1  22/74/1  16/75/1  15/76/1 
f  22/77/1  23/78/1  17/79/1  16/80/1 
f  23/81/1  24/82/1  18/83/1  17/84/1 
g mesh_[03]_[00]
f  1/93/1  2/94/1  3/95/1  4/96/1 
g mesh_[05]_[06]
f  61/97/1  4/98/1  62/99/1  63/28/1 
f  4/97/1  3/98/1  64/99/1  62/28/1 
f  3/97/1  6/98/1  65/99/1  64/28/1 
f  6/97/1  8/98/1  66/99/1  65/28/1 
f  8/97/1  10/98/1  67/99/1  66/28/1 
f  10/97/1  12/98/1  68/99/1  67/28/1 
f  12/97/1  69/98/1  70/99/1  68/28/1 
f  71/97/1  1/98/1  4/99/1  61/28/1 
f  2/97/1  5/98/1  6/99/1  3/28/1 
f  5/97/1  7/98/1  8/99/1  6/28/1 
f  7/97/1  9/98/1  10/99/1  8/28/1 
f  9/97/1  11/98/1  12/99/1  10/28/1 
f  11/97/1  72/98/1  69/99/1  12/28/1 
f  73/97/1  13/98/1  1/99/1  71/28/1 
f  15/97/1  16/98/1  7/99/1  5/28/1 
f  17/97/1  18/98/1  11/99/1  9/28/1 
f  18/97/1  74/98/1  72/99/1  11/28/1 
f  75/97/1  19/98/1  13/99/1  73/28/1 
f  21/97/1  22/98/1  16/99/1  15/28/1 
f  23/97/1  24/98/1  18/99/1  17/28/1 
f  24/97/1  76/98/1  74/99/1  18/28/1 
f  77/97/1  25/98/1  19/99/1  75/28/1 
f  30/97/1  78/98/1  76/99/1  24/28/1 
f  79/97/1  31/98/1  25/99/1  77/28/1 
f  36/97/1  80/98/1  78/99/1  30/28/1 
f  81/97/1  37/98/1  31/99/1  79/28/1 
f  42/97/1  82/98/1  80/99/1  36/28/1 
f  83/97/1  43/98/1  37/99/1  81/28/1 
f  48/97/1  84/98/1  82/99/1  42/28/1 
f  85/97/1  49/98/1  43/99/1  83/28/1 
f  54/97/1  86/98/1  84/99/1  48/28/1 
f  87/97/1  55/98/1  49/99/1  85/28/1 
f  55/97/1  56/98/1  50/99/1  49/28/1 
f  56/97/1  57/98/1  51/99/1  50/28/1 
f  57/97/1  58/98/1  52/99/1  51/28/1 
f  58/97/1  59/98/1  53/99/1  52/28/1 
f  59/97/1  60/98/1  54/99/1  53/28/1 
f  60/97/1  88/98/1  86/99/1  54/28/1 
