# Wavefront OBJ file automatically generated by Tiled2Unity

# Vertices (Count = 159)
v -5.75999975204468 -4.79999971389771 0
v -6.71999979019165 -4.79999971389771 0
v -6.71999979019165 -3.83999991416931 0
v -5.75999975204468 -3.83999991416931 0
v -7.67999982833862 -4.79999971389771 0
v -7.67999982833862 -3.83999991416931 0
v -8.63999938964844 -4.79999971389771 0
v -8.63999938964844 -3.83999991416931 0
v -9.59999942779541 -4.79999971389771 0
v -9.59999942779541 -3.83999991416931 0
v -10.5599994659424 -4.79999971389771 0
v -10.5599994659424 -3.83999991416931 0
v -11.5199995040894 -4.79999971389771 0
v -11.5199995040894 -3.83999991416931 0
v -12.4799995422363 -4.79999971389771 0
v -12.4799995422363 -3.83999991416931 0
v -13.4399995803833 -4.79999971389771 0
v -13.4399995803833 -3.83999991416931 0
v -14.3999996185303 -4.79999971389771 0
v -14.3999996185303 -3.83999991416931 0
v -15.3599996566772 -4.79999971389771 0
v -15.3599996566772 -3.83999991416931 0
v -16.3199996948242 -4.79999971389771 0
v -16.3199996948242 -3.83999991416931 0
v -5.75999975204468 -5.75999975204468 0
v -6.71999979019165 -5.75999975204468 0
v -7.67999982833862 -5.75999975204468 0
v -8.63999938964844 -5.75999975204468 0
v -9.59999942779541 -5.75999975204468 0
v -10.5599994659424 -5.75999975204468 0
v -11.5199995040894 -5.75999975204468 0
v -12.4799995422363 -5.75999975204468 0
v -13.4399995803833 -5.75999975204468 0
v -14.3999996185303 -5.75999975204468 0
v -15.3599996566772 -5.75999975204468 0
v -16.3199996948242 -5.75999975204468 0
v -5.75999975204468 -6.71999979019165 0
v -6.71999979019165 -6.71999979019165 0
v -7.67999982833862 -6.71999979019165 0
v -8.63999938964844 -6.71999979019165 0
v -9.59999942779541 -6.71999979019165 0
v -10.5599994659424 -6.71999979019165 0
v -11.5199995040894 -6.71999979019165 0
v -12.4799995422363 -6.71999979019165 0
v -13.4399995803833 -6.71999979019165 0
v -14.3999996185303 -6.71999979019165 0
v -15.3599996566772 -6.71999979019165 0
v -16.3199996948242 -6.71999979019165 0
v -5.75999975204468 -7.67999982833862 0
v -6.71999979019165 -7.67999982833862 0
v -7.67999982833862 -7.67999982833862 0
v -8.63999938964844 -7.67999982833862 0
v -9.59999942779541 -7.67999982833862 0
v -10.5599994659424 -7.67999982833862 0
v -11.5199995040894 -7.67999982833862 0
v -12.4799995422363 -7.67999982833862 0
v -13.4399995803833 -7.67999982833862 0
v -14.3999996185303 -7.67999982833862 0
v -15.3599996566772 -7.67999982833862 0
v -16.3199996948242 -7.67999982833862 0
v -5.75999975204468 -8.63999938964844 0
v -6.71999979019165 -8.63999938964844 0
v -7.67999982833862 -8.63999938964844 0
v -8.63999938964844 -8.63999938964844 0
v -9.59999942779541 -8.63999938964844 0
v -10.5599994659424 -8.63999938964844 0
v -11.5199995040894 -8.63999938964844 0
v -12.4799995422363 -8.63999938964844 0
v -13.4399995803833 -8.63999938964844 0
v -14.3999996185303 -8.63999938964844 0
v -15.3599996566772 -8.63999938964844 0
v -16.3199996948242 -8.63999938964844 0
v -5.75999975204468 -9.59999942779541 0
v -6.71999979019165 -9.59999942779541 0
v -7.67999982833862 -9.59999942779541 0
v -8.63999938964844 -9.59999942779541 0
v -9.59999942779541 -9.59999942779541 0
v -10.5599994659424 -9.59999942779541 0
v -11.5199995040894 -9.59999942779541 0
v -12.4799995422363 -9.59999942779541 0
v -13.4399995803833 -9.59999942779541 0
v -14.3999996185303 -9.59999942779541 0
v -15.3599996566772 -9.59999942779541 0
v -16.3199996948242 -9.59999942779541 0
v -5.75999975204468 -10.5599994659424 0
v -6.71999979019165 -10.5599994659424 0
v -7.67999982833862 -10.5599994659424 0
v -8.63999938964844 -10.5599994659424 0
v -9.59999942779541 -10.5599994659424 0
v -10.5599994659424 -10.5599994659424 0
v -11.5199995040894 -10.5599994659424 0
v -12.4799995422363 -10.5599994659424 0
v -13.4399995803833 -10.5599994659424 0
v -14.3999996185303 -10.5599994659424 0
v -15.3599996566772 -10.5599994659424 0
v -16.3199996948242 -10.5599994659424 0
v -5.75999975204468 -11.5199995040894 0
v -6.71999979019165 -11.5199995040894 0
v -7.67999982833862 -11.5199995040894 0
v -8.63999938964844 -11.5199995040894 0
v -9.59999942779541 -11.5199995040894 0
v -10.5599994659424 -11.5199995040894 0
v -11.5199995040894 -11.5199995040894 0
v -12.4799995422363 -11.5199995040894 0
v -13.4399995803833 -11.5199995040894 0
v -14.3999996185303 -11.5199995040894 0
v -15.3599996566772 -11.5199995040894 0
v -16.3199996948242 -11.5199995040894 0
v -4.79999971389771 -2.87999987602234 0
v -5.75999975204468 -2.87999987602234 0
v -5.75999975204468 -1.91999995708466 0
v -4.79999971389771 -1.91999995708466 0
v -6.71999979019165 -2.87999987602234 0
v -6.71999979019165 -1.91999995708466 0
v -7.67999982833862 -2.87999987602234 0
v -7.67999982833862 -1.91999995708466 0
v -8.63999938964844 -2.87999987602234 0
v -8.63999938964844 -1.91999995708466 0
v -9.59999942779541 -2.87999987602234 0
v -9.59999942779541 -1.91999995708466 0
v -10.5599994659424 -2.87999987602234 0
v -10.5599994659424 -1.91999995708466 0
v -11.5199995040894 -2.87999987602234 0
v -11.5199995040894 -1.91999995708466 0
v -12.4799995422363 -2.87999987602234 0
v -12.4799995422363 -1.91999995708466 0
v -13.4399995803833 -2.87999987602234 0
v -13.4399995803833 -1.91999995708466 0
v -14.3999996185303 -2.87999987602234 0
v -14.3999996185303 -1.91999995708466 0
v -15.3599996566772 -2.87999987602234 0
v -15.3599996566772 -1.91999995708466 0
v -16.3199996948242 -2.87999987602234 0
v -16.3199996948242 -1.91999995708466 0
v -17.2799987792969 -2.87999987602234 0
v -17.2799987792969 -1.91999995708466 0
v -4.79999971389771 -3.83999991416931 0
v -17.2799987792969 -3.83999991416931 0
v -4.79999971389771 -4.79999971389771 0
v -17.2799987792969 -4.79999971389771 0
v -4.79999971389771 -5.75999975204468 0
v -17.2799987792969 -5.75999975204468 0
v -4.79999971389771 -6.71999979019165 0
v -17.2799987792969 -6.71999979019165 0
v -4.79999971389771 -7.67999982833862 0
v -17.2799987792969 -7.67999982833862 0
v -4.79999971389771 -8.63999938964844 0
v -17.2799987792969 -8.63999938964844 0
v -4.79999971389771 -9.59999942779541 0
v -17.2799987792969 -9.59999942779541 0
v -4.79999971389771 -10.5599994659424 0
v -17.2799987792969 -10.5599994659424 0
v -4.79999971389771 -11.5199995040894 0
v -17.2799987792969 -11.5199995040894 0
v -9.59999942779541 -12.4799995422363 0
v -10.5599994659424 -12.4799995422363 0
v -11.5199995040894 -12.4799995422363 0
v -12.4799995422363 -12.4799995422363 0
v -13.4399995803833 -12.4799995422363 0

# Texture Coorindates (Count = 171)
vt 0.8751221 0.06262207
vt 0.9373779 0.06262207
vt 0.9373779 0.1248779
vt 0.8751221 0.1248779
vt 0.4376221 0.3751221
vt 0.4686279 0.3751221
vt 0.4686279 0.4061279
vt 0.4376221 0.4061279
vt 0.4376221 0.3438721
vt 0.4686279 0.3438721
vt 0.4686279 0.3748779
vt 0.4376221 0.3748779
vt 0.0001220703 0.9286935
vt 0.06237793 0.9286935
vt 0.06237793 0.9998779
vt 0.0001220703 0.9998779
vt 0.06262207 0.9286935
vt 0.1248779 0.9286935
vt 0.1248779 0.9998779
vt 0.06262207 0.9998779
vt 0.1251221 0.9286935
vt 0.1873779 0.9286935
vt 0.1873779 0.9998779
vt 0.1251221 0.9998779
vt 0.0001220703 0.8572649
vt 0.06237793 0.8572649
vt 0.06237793 0.9284493
vt 0.0001220703 0.9284493
vt 0.1876221 0.3751221
vt 0.2498779 0.3751221
vt 0.2498779 0.4373779
vt 0.1876221 0.4373779
vt 0.1251221 0.8572649
vt 0.1873779 0.8572649
vt 0.1873779 0.9284493
vt 0.1251221 0.9284493
vt 0.0001220703 0.7144078
vt 0.06237793 0.7144078
vt 0.06237793 0.7855922
vt 0.0001220703 0.7855922
vt 0.1251221 0.7144078
vt 0.1873779 0.7144078
vt 0.1873779 0.7855922
vt 0.1251221 0.7855922
vt 0.6251221 0.1876221
vt 0.6873779 0.1876221
vt 0.6873779 0.2498779
vt 0.6251221 0.2498779
vt 0.1876221 0.3126221
vt 0.2498779 0.3126221
vt 0.2498779 0.3748779
vt 0.1876221 0.3748779
vt 0.0001220703 0.9376221
vt 0.06237793 0.9376221
vt 0.1876221 0.9376221
vt 0.2498779 0.9376221
vt 0.2498779 0.9998779
vt 0.1876221 0.9998779
vt 0.06262207 0.9376221
vt 0.1248779 0.9376221
vt 0.3751221 0.9376221
vt 0.4373779 0.9376221
vt 0.4373779 0.9998779
vt 0.3751221 0.9998779
vt 0.5626221 0.1251221
vt 0.6248779 0.1251221
vt 0.6248779 0.1873779
vt 0.5626221 0.1873779
vt 0.6251221 0.1251221
vt 0.6873779 0.1251221
vt 0.6873779 0.1873779
vt 0.6251221 0.1873779
vt 0.6876221 0.1251221
vt 0.7498779 0.1251221
vt 0.7498779 0.1873779
vt 0.6876221 0.1873779
vt 0.1876221 0.2501221
vt 0.2498779 0.2501221
vt 0.2498779 0.3123779
vt 0.1876221 0.3123779
vt 0.0001220703 0.8751221
vt 0.06237793 0.8751221
vt 0.06237793 0.9373779
vt 0.0001220703 0.9373779
vt 0.1876221 0.8751221
vt 0.2498779 0.8751221
vt 0.2498779 0.9373779
vt 0.1876221 0.9373779
vt 0.06262207 0.8751221
vt 0.1248779 0.8751221
vt 0.1248779 0.9373779
vt 0.06262207 0.9373779
vt 0.3751221 0.8751221
vt 0.4373779 0.8751221
vt 0.4373779 0.9373779
vt 0.3751221 0.9373779
vt 0.5626221 0.06262207
vt 0.6248779 0.06262207
vt 0.6248779 0.1248779
vt 0.5626221 0.1248779
vt 0.6251221 0.06262207
vt 0.6873779 0.06262207
vt 0.6873779 0.1248779
vt 0.6251221 0.1248779
vt 0.6876221 0.06262207
vt 0.7498779 0.06262207
vt 0.7498779 0.1248779
vt 0.6876221 0.1248779
vt 0.5626221 0.0001220703
vt 0.6248779 0.0001220703
vt 0.6248779 0.06237793
vt 0.5626221 0.06237793
vt 0.6251221 0.0001220703
vt 0.6873779 0.0001220703
vt 0.6873779 0.06237793
vt 0.6251221 0.06237793
vt 0.6876221 0.0001220703
vt 0.7498779 0.0001220703
vt 0.7498779 0.06237793
vt 0.6876221 0.06237793
vt 0.6251221 0.3126221
vt 0.6873779 0.3126221
vt 0.6873779 0.3748779
vt 0.6251221 0.3748779
vt 0.6876221 0.3126221
vt 0.7498779 0.3126221
vt 0.7498779 0.3748779
vt 0.6876221 0.3748779
vt 0.6251221 0.2501221
vt 0.6873779 0.2501221
vt 0.6873779 0.3123779
vt 0.6251221 0.3123779
vt 0.6876221 0.2501221
vt 0.7498779 0.2501221
vt 0.7498779 0.3123779
vt 0.6876221 0.3123779
vt 0.06262207 0.8126221
vt 0.1248779 0.8126221
vt 0.1248779 0.8748779
vt 0.06262207 0.8748779
vt 0.06262207 0.7501221
vt 0.1248779 0.7501221
vt 0.1248779 0.8123779
vt 0.06262207 0.8123779
vt 0.4376221 0.9286935
vt 0.3748779 0.9286935
vt 0.3748779 0.8570208
vt 0.4376221 0.8570208
vt 0.06262207 0.2858364
vt 0.1248779 0.2858364
vt 0.1248779 0.3570208
vt 0.06262207 0.3570208
vt 0.8751221 0.2858364
vt 0.9373779 0.2858364
vt 0.9373779 0.3570208
vt 0.8751221 0.3570208
vt 0.8126221 0.2144078
vt 0.8748779 0.2144078
vt 0.8748779 0.2855922
vt 0.8126221 0.2855922
vt 0.9376221 0.2858364
vt 0.9998779 0.2858364
vt 0.9998779 0.3570208
vt 0.9376221 0.3570208
vt 0.8126221 0.1429792
vt 0.8748779 0.1429792
vt 0.8748779 0.2141636
vt 0.8126221 0.2141636
vt 0.0001220703 0.9611926
vt 0.01659684 0.9611926
vt 0.01659684 0.9998779

# Normal
vn 0 0 -1

# Groups (Count = 12)
g mesh_[00]_[07]
f  1/1/1  2/2/1  3/3/1  4/4/1 
f  2/1/1  5/2/1  6/3/1  3/4/1 
f  5/1/1  7/2/1  8/3/1  6/4/1 
f  7/1/1  9/2/1  10/3/1  8/4/1 
f  9/1/1  11/2/1  12/3/1  10/4/1 
f  11/1/1  13/2/1  14/3/1  12/4/1 
f  13/1/1  15/2/1  16/3/1  14/4/1 
f  15/1/1  17/2/1  18/3/1  16/4/1 
f  17/1/1  19/2/1  20/3/1  18/4/1 
f  19/1/1  21/2/1  22/3/1  20/4/1 
f  21/1/1  23/2/1  24/3/1  22/4/1 
f  25/1/1  26/2/1  2/3/1  1/4/1 
f  26/1/1  27/2/1  5/3/1  2/4/1 
f  27/1/1  28/2/1  7/3/1  5/4/1 
f  28/1/1  29/2/1  9/3/1  7/4/1 
f  29/1/1  30/2/1  11/3/1  9/4/1 
f  30/1/1  31/2/1  13/3/1  11/4/1 
f  31/1/1  32/2/1  15/3/1  13/4/1 
f  32/1/1  33/2/1  17/3/1  15/4/1 
f  33/1/1  34/2/1  19/3/1  17/4/1 
f  34/1/1  35/2/1  21/3/1  19/4/1 
f  35/1/1  36/2/1  23/3/1  21/4/1 
f  37/1/1  38/2/1  26/3/1  25/4/1 
f  38/1/1  39/2/1  27/3/1  26/4/1 
f  39/1/1  40/2/1  28/3/1  27/4/1 
f  40/1/1  41/2/1  29/3/1  28/4/1 
f  41/1/1  42/2/1  30/3/1  29/4/1 
f  42/1/1  43/2/1  31/3/1  30/4/1 
f  43/1/1  44/2/1  32/3/1  31/4/1 
f  44/1/1  45/2/1  33/3/1  32/4/1 
f  45/1/1  46/2/1  34/3/1  33/4/1 
f  46/1/1  47/2/1  35/3/1  34/4/1 
f  47/1/1  48/2/1  36/3/1  35/4/1 
f  49/1/1  50/2/1  38/3/1  37/4/1 
f  50/1/1  51/2/1  39/3/1  38/4/1 
f  51/1/1  52/2/1  40/3/1  39/4/1 
f  52/1/1  53/2/1  41/3/1  40/4/1 
f  53/1/1  54/2/1  42/3/1  41/4/1 
f  54/1/1  55/2/1  43/3/1  42/4/1 
f  55/1/1  56/2/1  44/3/1  43/4/1 
f  56/1/1  57/2/1  45/3/1  44/4/1 
f  57/1/1  58/2/1  46/3/1  45/4/1 
f  58/1/1  59/2/1  47/3/1  46/4/1 
f  59/1/1  60/2/1  48/3/1  47/4/1 
f  61/1/1  62/2/1  50/3/1  49/4/1 
f  62/1/1  63/2/1  51/3/1  50/4/1 
f  63/1/1  64/2/1  52/3/1  51/4/1 
f  64/1/1  65/2/1  53/3/1  52/4/1 
f  65/1/1  66/2/1  54/3/1  53/4/1 
f  66/1/1  67/2/1  55/3/1  54/4/1 
f  67/1/1  68/2/1  56/3/1  55/4/1 
f  68/1/1  69/2/1  57/3/1  56/4/1 
f  69/1/1  70/2/1  58/3/1  57/4/1 
f  70/1/1  71/2/1  59/3/1  58/4/1 
f  71/1/1  72/2/1  60/3/1  59/4/1 
f  73/1/1  74/2/1  62/3/1  61/4/1 
f  74/1/1  75/2/1  63/3/1  62/4/1 
f  75/1/1  76/2/1  64/3/1  63/4/1 
f  76/1/1  77/2/1  65/3/1  64/4/1 
f  77/1/1  78/2/1  66/3/1  65/4/1 
f  78/1/1  79/2/1  67/3/1  66/4/1 
f  79/1/1  80/2/1  68/3/1  67/4/1 
f  80/1/1  81/2/1  69/3/1  68/4/1 
f  81/1/1  82/2/1  70/3/1  69/4/1 
f  82/1/1  83/2/1  71/3/1  70/4/1 
f  83/1/1  84/2/1  72/3/1  71/4/1 
f  85/1/1  86/2/1  74/3/1  73/4/1 
f  86/1/1  87/2/1  75/3/1  74/4/1 
f  87/1/1  88/2/1  76/3/1  75/4/1 
f  88/1/1  89/2/1  77/3/1  76/4/1 
f  89/1/1  90/2/1  78/3/1  77/4/1 
f  90/1/1  91/2/1  79/3/1  78/4/1 
f  91/1/1  92/2/1  80/3/1  79/4/1 
f  92/1/1  93/2/1  81/3/1  80/4/1 
f  93/1/1  94/2/1  82/3/1  81/4/1 
f  94/1/1  95/2/1  83/3/1  82/4/1 
f  95/1/1  96/2/1  84/3/1  83/4/1 
f  97/1/1  98/2/1  86/3/1  85/4/1 
f  98/1/1  99/2/1  87/3/1  86/4/1 
f  99/1/1  100/2/1  88/3/1  87/4/1 
f  100/1/1  101/2/1  89/3/1  88/4/1 
f  101/1/1  102/2/1  90/3/1  89/4/1 
f  102/1/1  103/2/1  91/3/1  90/4/1 
f  103/1/1  104/2/1  92/3/1  91/4/1 
f  104/1/1  105/2/1  93/3/1  92/4/1 
f  105/1/1  106/2/1  94/3/1  93/4/1 
f  106/1/1  107/2/1  95/3/1  94/4/1 
f  107/1/1  108/2/1  96/3/1  95/4/1 
g mesh_[01]_[02]
f  19/5/1  21/6/1  22/7/1  20/8/1 
f  34/9/1  35/10/1  21/11/1  19/12/1 
g mesh_[02]_[06]
f  109/13/1  110/14/1  111/15/1  112/16/1 
f  110/17/1  113/18/1  114/19/1  111/20/1 
f  113/17/1  115/18/1  116/19/1  114/20/1 
f  115/17/1  117/18/1  118/19/1  116/20/1 
f  117/17/1  119/18/1  120/19/1  118/20/1 
f  119/17/1  121/18/1  122/19/1  120/20/1 
f  121/17/1  123/18/1  124/19/1  122/20/1 
f  123/17/1  125/18/1  126/19/1  124/20/1 
f  125/17/1  127/18/1  128/19/1  126/20/1 
f  127/17/1  129/18/1  130/19/1  128/20/1 
f  129/17/1  131/18/1  132/19/1  130/20/1 
f  131/17/1  133/18/1  134/19/1  132/20/1 
f  133/21/1  135/22/1  136/23/1  134/24/1 
f  137/25/1  4/26/1  110/27/1  109/28/1 
f  24/33/1  138/34/1  135/35/1  133/36/1 
f  139/25/1  1/26/1  4/27/1  137/28/1 
f  23/33/1  140/34/1  138/35/1  24/36/1 
f  141/25/1  25/26/1  1/27/1  139/28/1 
f  36/33/1  142/34/1  140/35/1  23/36/1 
f  143/25/1  37/26/1  25/27/1  141/28/1 
f  48/33/1  144/34/1  142/35/1  36/36/1 
f  145/25/1  49/26/1  37/27/1  143/28/1 
f  60/33/1  146/34/1  144/35/1  48/36/1 
f  147/25/1  61/26/1  49/27/1  145/28/1 
f  72/33/1  148/34/1  146/35/1  60/36/1 
f  149/25/1  73/26/1  61/27/1  147/28/1 
f  84/33/1  150/34/1  148/35/1  72/36/1 
f  151/25/1  85/26/1  73/27/1  149/28/1 
f  96/33/1  152/34/1  150/35/1  84/36/1 
f  153/37/1  97/38/1  85/39/1  151/40/1 
f  97/17/1  98/18/1  86/19/1  85/20/1 
f  98/17/1  99/18/1  87/19/1  86/20/1 
f  99/17/1  100/18/1  88/19/1  87/20/1 
f  100/17/1  101/18/1  89/19/1  88/20/1 
f  101/17/1  102/18/1  90/19/1  89/20/1 
f  104/17/1  105/18/1  93/19/1  92/20/1 
f  105/17/1  106/18/1  94/19/1  93/20/1 
f  106/17/1  107/18/1  95/19/1  94/20/1 
f  107/17/1  108/18/1  96/19/1  95/20/1 
f  108/41/1  154/42/1  152/43/1  96/44/1 
g mesh_[02]_[07]
f  4/29/1  3/30/1  113/31/1  110/32/1 
f  3/29/1  6/30/1  115/31/1  113/32/1 
f  6/29/1  8/30/1  117/31/1  115/32/1 
f  8/29/1  10/30/1  119/31/1  117/32/1 
f  10/29/1  12/30/1  121/31/1  119/32/1 
f  12/29/1  14/30/1  123/31/1  121/32/1 
f  14/29/1  16/30/1  125/31/1  123/32/1 
f  16/29/1  18/30/1  127/31/1  125/32/1 
f  18/29/1  20/30/1  129/31/1  127/32/1 
f  20/29/1  22/30/1  131/31/1  129/32/1 
f  22/29/1  24/30/1  133/31/1  131/32/1 
g mesh_[03]_[05]
f  4/45/1  3/46/1  113/47/1  110/48/1 
f  3/49/1  6/50/1  115/51/1  113/52/1 
f  1/69/1  2/70/1  3/71/1  4/72/1 
f  2/77/1  5/78/1  6/79/1  3/80/1 
g mesh_[03]_[00]
f  6/53/1  8/54/1  117/15/1  115/16/1 
f  8/55/1  10/56/1  119/57/1  117/58/1 
f  10/59/1  12/60/1  121/19/1  119/20/1 
f  12/55/1  14/56/1  123/57/1  121/58/1 
f  14/61/1  16/62/1  125/63/1  123/64/1 
f  16/55/1  18/56/1  127/57/1  125/58/1 
f  5/81/1  7/82/1  8/83/1  6/84/1 
f  7/85/1  9/86/1  10/87/1  8/88/1 
f  9/89/1  11/90/1  12/91/1  10/92/1 
f  11/85/1  13/86/1  14/87/1  12/88/1 
f  13/93/1  15/94/1  16/95/1  14/96/1 
f  15/85/1  17/86/1  18/87/1  16/88/1 
g mesh_[03]_[07]
f  18/65/1  20/66/1  129/67/1  127/68/1 
f  20/69/1  22/70/1  131/71/1  129/72/1 
f  22/73/1  24/74/1  133/75/1  131/76/1 
f  17/97/1  19/98/1  20/99/1  18/100/1 
f  19/101/1  21/102/1  22/103/1  20/104/1 
f  21/105/1  23/106/1  24/107/1  22/108/1 
f  33/109/1  34/110/1  19/111/1  17/112/1 
f  34/113/1  35/114/1  21/115/1  19/116/1 
f  35/117/1  36/118/1  23/119/1  21/120/1 
g mesh_[03]_[04]
f  39/121/1  40/122/1  28/123/1  27/124/1 
f  40/125/1  41/126/1  29/127/1  28/128/1 
f  51/129/1  52/130/1  40/131/1  39/132/1 
f  52/133/1  53/134/1  41/135/1  40/136/1 
f  59/59/1  60/60/1  48/19/1  47/20/1 
f  71/89/1  72/90/1  60/91/1  59/92/1 
f  83/137/1  84/138/1  72/139/1  71/140/1 
f  95/141/1  96/142/1  84/143/1  83/144/1 
g mesh_[03]_[06]
f  102/145/1  103/146/1  91/147/1  90/148/1 
f  103/145/1  104/146/1  92/147/1  91/148/1 
g mesh_[04]_[06]
f  12/149/1  14/150/1  123/151/1  121/152/1 
f  38/153/1  39/154/1  27/155/1  26/156/1 
f  50/153/1  51/154/1  39/155/1  38/156/1 
f  51/157/1  52/158/1  40/159/1  39/160/1 
f  52/157/1  53/158/1  41/159/1  40/160/1 
f  53/161/1  54/162/1  42/163/1  41/164/1 
f  63/165/1  64/166/1  52/167/1  51/168/1 
f  64/165/1  65/166/1  53/167/1  52/168/1 
g mesh_[06]_[09]
f  155/169/1  156/170/1  102/171/1  101/16/1 
f  156/169/1  157/170/1  103/171/1  102/16/1 
f  157/169/1  158/170/1  104/171/1  103/16/1 
f  158/169/1  159/170/1  105/171/1  104/16/1 
g mesh_[07]_[09]
f  109/169/1  110/170/1  111/171/1  112/16/1 
f  110/169/1  113/170/1  114/171/1  111/16/1 
f  113/169/1  115/170/1  116/171/1  114/16/1 
f  115/169/1  117/170/1  118/171/1  116/16/1 
f  117/169/1  119/170/1  120/171/1  118/16/1 
f  119/169/1  121/170/1  122/171/1  120/16/1 
f  121/169/1  123/170/1  124/171/1  122/16/1 
f  123/169/1  125/170/1  126/171/1  124/16/1 
f  125/169/1  127/170/1  128/171/1  126/16/1 
f  127/169/1  129/170/1  130/171/1  128/16/1 
f  129/169/1  131/170/1  132/171/1  130/16/1 
f  131/169/1  133/170/1  134/171/1  132/16/1 
f  133/169/1  135/170/1  136/171/1  134/16/1 
f  137/169/1  4/170/1  110/171/1  109/16/1 
f  4/169/1  3/170/1  113/171/1  110/16/1 
f  3/169/1  6/170/1  115/171/1  113/16/1 
f  6/169/1  8/170/1  117/171/1  115/16/1 
f  8/169/1  10/170/1  119/171/1  117/16/1 
f  10/169/1  12/170/1  121/171/1  119/16/1 
f  12/169/1  14/170/1  123/171/1  121/16/1 
f  14/169/1  16/170/1  125/171/1  123/16/1 
f  16/169/1  18/170/1  127/171/1  125/16/1 
f  18/169/1  20/170/1  129/171/1  127/16/1 
f  20/169/1  22/170/1  131/171/1  129/16/1 
f  22/169/1  24/170/1  133/171/1  131/16/1 
f  24/169/1  138/170/1  135/171/1  133/16/1 
f  139/169/1  1/170/1  4/171/1  137/16/1 
f  17/169/1  19/170/1  20/171/1  18/16/1 
f  21/169/1  23/170/1  24/171/1  22/16/1 
f  23/169/1  140/170/1  138/171/1  24/16/1 
f  141/169/1  25/170/1  1/171/1  139/16/1 
f  33/169/1  34/170/1  19/171/1  17/16/1 
f  35/169/1  36/170/1  23/171/1  21/16/1 
f  36/169/1  142/170/1  140/171/1  23/16/1 
f  143/169/1  37/170/1  25/171/1  141/16/1 
f  39/169/1  40/170/1  28/171/1  27/16/1 
f  40/169/1  41/170/1  29/171/1  28/16/1 
f  48/169/1  144/170/1  142/171/1  36/16/1 
f  145/169/1  49/170/1  37/171/1  143/16/1 
f  51/169/1  52/170/1  40/171/1  39/16/1 
f  52/169/1  53/170/1  41/171/1  40/16/1 
f  60/169/1  146/170/1  144/171/1  48/16/1 
f  147/169/1  61/170/1  49/171/1  145/16/1 
f  71/169/1  72/170/1  60/171/1  59/16/1 
f  72/169/1  148/170/1  146/171/1  60/16/1 
f  149/169/1  73/170/1  61/171/1  147/16/1 
f  83/169/1  84/170/1  72/171/1  71/16/1 
f  84/169/1  150/170/1  148/171/1  72/16/1 
f  151/169/1  85/170/1  73/171/1  149/16/1 
f  95/169/1  96/170/1  84/171/1  83/16/1 
f  96/169/1  152/170/1  150/171/1  84/16/1 
f  153/169/1  97/170/1  85/171/1  151/16/1 
f  97/169/1  98/170/1  86/171/1  85/16/1 
f  98/169/1  99/170/1  87/171/1  86/16/1 
f  99/169/1  100/170/1  88/171/1  87/16/1 
f  100/169/1  101/170/1  89/171/1  88/16/1 
f  101/169/1  102/170/1  90/171/1  89/16/1 
f  104/169/1  105/170/1  93/171/1  92/16/1 
f  105/169/1  106/170/1  94/171/1  93/16/1 
f  106/169/1  107/170/1  95/171/1  94/16/1 
f  107/169/1  108/170/1  96/171/1  95/16/1 
f  108/169/1  154/170/1  152/171/1  96/16/1 
