# Wavefront OBJ file automatically generated by Tiled2Unity

# Vertices (Count = 6)
v -67.2000045776367 -54.4000015258789 0
v -70.4000015258789 -54.4000015258789 0
v -70.4000015258789 -51.2000007629395 0
v -67.2000045776367 -51.2000007629395 0
v -67.2000045776367 -57.6000022888184 0
v -70.4000015258789 -57.6000022888184 0

# Texture Coorindates (Count = 8)
vt 0.5834554 0.4376221
vt 0.6665446 0.4376221
vt 0.6665446 0.4998779
vt 0.5834554 0.4998779
vt 0.5834554 0.3751221
vt 0.6665446 0.3751221
vt 0.6665446 0.4373779
vt 0.5834554 0.4373779

# Normal
vn 0 0 -1

# Groups (Count = 1)
g mesh_[00]_[01]
f  1/1/1  2/2/1  3/3/1  4/4/1 
f  5/5/1  6/6/1  2/7/1  1/8/1 
